<svg data-v-fde0c5aa="" xmlns="http://www.w3.org/2000/svg" viewBox="0 0 300 300" class="iconLeft"><!----><defs data-v-fde0c5aa=""><linearGradient data-v-fde0c5aa="" gradientTransform="rotate(25)" id="8f362d68-880e-43d9-99ab-f818353fae37" x1="0%" y1="0%" x2="100%" y2="0%"><stop data-v-fde0c5aa="" offset="0%" stop-color="#EB4C00" stop-opacity="1"></stop><stop data-v-fde0c5aa="" offset="100%" stop-color="#F2A900" stop-opacity="1"></stop></linearGradient></defs><rect data-v-fde0c5aa="" fill="url(#8f362d68-880e-43d9-99ab-f818353fae37)" x="0" y="0" width="300px" height="300px" class="logo-background-square"></rect><defs data-v-fde0c5aa=""><!----></defs><g data-v-fde0c5aa="" id="72f42cc6-f674-4818-99a1-9b951877a720" fill="#ffffff" transform="matrix(8.25913956278649,0,0,8.25913956278649,152.96154935130588,82.52282914191203)"><path d="M5.21 13.47L4.19 2.87L1.29 2.87L0.20 13.47L1.92 13.47L2.13 10.81L3.22 10.81L3.43 13.47ZM3.15 9.13L2.20 9.13L2.62 4.61L2.74 4.61ZM12.96 13.47L12.96 2.87L10.43 2.87L9.69 6.71C9.56 7.39 9.48 7.81 9.42 8.27L9.34 8.27C9.28 7.81 9.21 7.39 9.09 6.71L8.39 2.87L5.84 2.87L5.84 13.47L7.39 13.47L7.39 6.15L7.46 6.15C7.50 6.51 7.59 6.93 7.66 7.28L9.02 13.47L9.80 13.47L11.13 7.29C11.21 6.92 11.30 6.51 11.34 6.15L11.41 6.15L11.41 13.47Z"></path></g><defs data-v-fde0c5aa=""><!----></defs><g data-v-fde0c5aa="" id="1f55f21e-438d-490e-a5cf-cc6d1baac0c5" stroke="none" fill="#ffffff" transform="matrix(1.3425650887048746,0,0,1.3425650887048746,22.569477719661542,82.99727302418374)"><g clip-rule="evenodd"><path d="M12.983 10.59l17.018 88.223-5.872-59.049 29.021-1.892-.054-9.883L64.549 1 53.622 18.977z"></path><path d="M59.389 54.548l5.16-53.541-8.74 39.716-19.612 1.045 1.57 20.462-7.766 36.583 12.057-39.899z"></path><path d="M62.8 67.182l.549-10.453-15.979 3.755-.032 11.797-17.337 26.532 21.68-27.616zM65.711 62.394l14.841-4.731 1.509-12.532-15.899 2.095zM72.07 44.502l10.988-1.417 1.581-10.278-8.079-.373L64.549 1l8.43 30.967z"></path><path d="M87.413 31.294l1.256-9.506-9.544-2.694L64.549 1l14.483 22.437-.422 7z"></path></g></g><!----></svg>