<svg data-v-423bf9ae="" xmlns="http://www.w3.org/2000/svg" viewBox="0 0 175 107" class="iconLeft"><!----><!----><!---->
<g data-v-423bf9ae="" id="5d946902-59ba-4da1-a859-64309d58d58b" fill="black" transform="matrix(5.660377154786554,0,0,5.660377154786554,101.12431433189482,6.90685024784311)">
<path d="M5.21 13.47L4.19 2.87L1.29 2.87L0.20 13.47L1.92 13.47L2.13 10.81L3.22 10.81L3.43 13.47ZM3.15 9.13L2.20 9.13L2.62 4.61L2.74 4.61ZM12.96 13.47L12.96 2.87L10.43 2.87L9.69 6.71C9.56 7.39 9.48 7.81 9.42 8.27L9.34 8.27C9.28 7.81 9.21 7.39 9.09 6.71L8.39 2.87L5.84 2.87L5.84 13.47L7.39 13.47L7.39 6.15L7.46 6.15C7.50 6.51 7.59 6.93 7.66 7.28L9.02 13.47L9.80 13.47L11.13 7.29C11.21 6.92 11.30 6.51 11.34 6.15L11.41 6.15L11.41 13.47Z">
</path>
</g><!----><g data-v-423bf9ae="" id="974d6b7f-fca4-4847-b0bf-82b8d16d2373" transform="matrix(1.0868111504448785,0,0,1.0868111504448785,-13.255261890115804,-0.23894260335429607)" stroke="none" fill="black"><g clip-rule="evenodd"><path d="M12.983 10.59l17.018 88.223-5.872-59.049 29.021-1.892-.054-9.883L64.549 1 53.622 18.977z"></path><path d="M59.389 54.548l5.16-53.541-8.74 39.716-19.612 1.045 1.57 20.462-7.766 36.583 12.057-39.899z"></path><path d="M62.8 67.182l.549-10.453-15.979 3.755-.032 11.797-17.337 26.532 21.68-27.616zM65.711 62.394l14.841-4.731 1.509-12.532-15.899 2.095zM72.07 44.502l10.988-1.417 1.581-10.278-8.079-.373L64.549 1l8.43 30.967z"></path><path d="M87.413 31.294l1.256-9.506-9.544-2.694L64.549 1l14.483 22.437-.422 7z"></path></g></g><!---->
</svg>