<svg data-v-fde0c5aa="" xmlns="http://www.w3.org/2000/svg" viewBox="0 0 300 300" class="font"><!----><defs data-v-fde0c5aa=""><linearGradient data-v-fde0c5aa="" gradientTransform="rotate(25)" id="a8f631f4-9eb0-4833-b02e-3be36a7561c6" x1="0%" y1="0%" x2="100%" y2="0%"><stop data-v-fde0c5aa="" offset="0%" stop-color="#EB4C00" stop-opacity="1"></stop><stop data-v-fde0c5aa="" offset="100%" stop-color="#F2A900" stop-opacity="1"></stop></linearGradient></defs><rect data-v-fde0c5aa="" fill="url(#a8f631f4-9eb0-4833-b02e-3be36a7561c6)" x="0" y="0" width="300px" height="300px" class="logo-background-square"></rect><defs data-v-fde0c5aa=""><!----></defs><g data-v-fde0c5aa="" id="9248a4cc-5dc9-4d7f-ac5f-f027e8e14081" fill="#ffffff" transform="matrix(17.24137900107849,0,0,17.24137900107849,36.551724148400986,9.137932245775922)"><path d="M5.21 13.47L4.19 2.87L1.29 2.87L0.20 13.47L1.92 13.47L2.13 10.81L3.22 10.81L3.43 13.47ZM3.15 9.13L2.20 9.13L2.62 4.61L2.74 4.61ZM12.96 13.47L12.96 2.87L10.43 2.87L9.69 6.71C9.56 7.39 9.48 7.81 9.42 8.27L9.34 8.27C9.28 7.81 9.21 7.39 9.09 6.71L8.39 2.87L5.84 2.87L5.84 13.47L7.39 13.47L7.39 6.15L7.46 6.15C7.50 6.51 7.59 6.93 7.66 7.28L9.02 13.47L9.80 13.47L11.13 7.29C11.21 6.92 11.30 6.51 11.34 6.15L11.41 6.15L11.41 13.47Z"></path></g><!----><!----></svg>