<svg data-v-423bf9ae="" xmlns="http://www.w3.org/2000/svg" viewBox="0 0 72.22641379063394 60" class="font"><!----><!----><!----><g data-v-423bf9ae="" id="c00f2f24-457b-474e-829c-4dcdad8a8b45" fill="black" transform="matrix(5.660377154786554,0,0,5.660377154786554,-1.1320752860251062,-16.245281786458648)"><path d="M5.21 13.47L4.19 2.87L1.29 2.87L0.20 13.47L1.92 13.47L2.13 10.81L3.22 10.81L3.43 13.47ZM3.15 9.13L2.20 9.13L2.62 4.61L2.74 4.61ZM12.96 13.47L12.96 2.87L10.43 2.87L9.69 6.71C9.56 7.39 9.48 7.81 9.42 8.27L9.34 8.27C9.28 7.81 9.21 7.39 9.09 6.71L8.39 2.87L5.84 2.87L5.84 13.47L7.39 13.47L7.39 6.15L7.46 6.15C7.50 6.51 7.59 6.93 7.66 7.28L9.02 13.47L9.80 13.47L11.13 7.29C11.21 6.92 11.30 6.51 11.34 6.15L11.41 6.15L11.41 13.47Z"></path></g><!----><!----></svg>